<svg width="43" height="38" viewBox="0 0 43 38" fill="none" xmlns="http://www.w3.org/2000/svg">
<path d="M21.0335 0C9.42898 0 0 8.51741 0 19C0 29.4826 9.42898 38 21.0335 38C32.6379 38 42.0669 29.4826 42.0669 19C42.0669 8.51741 32.6379 0 21.0335 0ZM21.0335 1.65217C31.6484 1.65217 40.2379 9.41126 40.2379 19C40.2379 19.0597 40.2326 19.1178 40.2326 19.1759C39.6485 19.1275 38.9716 19.0807 38.1124 19.0532C36.8979 19.0145 35.3654 19.0258 33.6292 19.1033C33.6935 18.6983 33.7382 18.2869 33.74 17.8657C33.8293 16.3184 33.2542 14.8712 32.3182 13.5933C32.5451 12.8882 32.8094 11.9912 32.8755 10.9731C32.9505 9.81301 32.8398 8.52709 31.8092 7.65744L31.5448 7.43478H31.184C28.7299 7.43478 27.0509 8.36252 26.0239 9.09825C24.5414 8.58033 22.8732 8.26087 21.0335 8.26087C19.183 8.26087 17.4987 8.58356 15.9555 9.10148C14.9285 8.36574 13.2477 7.43478 10.7918 7.43478H10.4328L10.1684 7.65583C9.16463 8.49805 9.07175 9.75008 9.13427 10.9037C9.18964 11.9218 9.43969 12.8479 9.66117 13.5869C8.71095 14.8905 8.13939 16.3749 8.13939 17.8432C8.13939 18.2659 8.18226 18.6773 8.24656 19.0839C6.59439 19.0145 5.12262 19.0016 3.95449 19.0387C3.09536 19.0662 2.41842 19.1113 1.83435 19.1613C1.83435 19.1081 1.829 19.0549 1.829 19C1.829 9.41126 10.4185 1.65217 21.0335 1.65217ZM11.3366 9.19506C13.1816 9.35318 14.5695 10.097 15.2125 10.6133L15.6411 10.9553L16.1698 10.7601C17.6166 10.2228 19.2295 9.91304 21.0335 9.91304C22.8375 9.91304 24.4521 10.2244 25.7881 10.752L26.324 10.965L26.7616 10.6133C27.4046 10.097 28.7942 9.35318 30.6411 9.19506C30.8858 9.56292 31.1001 10.0857 31.0483 10.8763C30.9858 11.8234 30.7071 12.8544 30.4946 13.4659L30.3571 13.8644L30.6303 14.2016C31.5359 15.3165 31.9967 16.5217 31.9181 17.798L31.9163 17.8206V17.8432C31.9163 19.9051 31.0947 21.5541 29.3443 22.7771C27.5939 24.0001 24.8308 24.7826 20.9424 24.7826C17.054 24.7826 14.289 24.0001 12.5386 22.7771C10.7882 21.5541 9.96839 19.9051 9.96839 17.8432C9.96839 16.6331 10.4524 15.302 11.3455 14.2016L11.6134 13.8725L11.4848 13.4804C11.2723 12.8302 11.0133 11.775 10.9615 10.823C10.9186 10.0308 11.1258 9.53066 11.3366 9.19506ZM6.29611 19.8438C6.94269 19.8519 7.68393 19.8826 8.42517 19.9164C8.49662 20.1746 8.57699 20.4279 8.67523 20.6748C5.65131 20.7328 3.38829 21.0071 1.99332 21.2427C1.93438 20.8297 1.88794 20.4134 1.86115 19.9907C2.89174 19.9019 4.34565 19.8212 6.29611 19.8438ZM35.7708 19.8567C37.7213 19.8342 39.1734 19.9148 40.204 20.0036C40.1772 20.4198 40.1308 20.8297 40.0736 21.2379C38.6286 20.9991 36.3049 20.7232 33.2024 20.6796C33.2988 20.4376 33.3792 20.1875 33.4488 19.9358C34.2669 19.8955 35.0653 19.8648 35.7708 19.8567ZM9.06461 21.4944C9.61116 22.4818 10.3899 23.3644 11.4205 24.084C12.8298 25.0682 14.6606 25.7555 16.8968 26.1234C16.6039 26.3944 16.3377 26.6929 16.102 27.0076L16.0466 26.964C16.0519 26.9592 15.5911 27.1673 14.9053 27.2221C14.2194 27.277 13.371 27.2609 12.6208 27.2609C11.5009 27.2609 11.0079 26.7833 10.2184 25.912C9.78084 25.3796 9.24858 24.9504 8.73239 24.6229C8.20369 24.2889 7.7518 24.0517 7.19274 23.9678L7.11773 23.9565H7.04092C6.61404 23.9565 6.20144 23.9839 5.81564 24.3825C5.62274 24.5809 5.49056 24.9504 5.5763 25.2618C5.66203 25.5732 5.88172 25.7652 6.07641 25.883C7.3267 26.6365 7.5464 28.1257 8.33051 29.4503C9.06282 30.7669 10.64 31.3913 12.2546 31.3913H14.632V35.3588C8.20191 33.3081 3.35078 28.2564 2.13264 22.0591C3.53296 21.8203 5.87637 21.5347 9.06461 21.4944ZM32.8148 21.5008C36.0727 21.5267 38.4822 21.8122 39.9361 22.0543C38.7197 28.2531 33.8668 33.3081 27.4349 35.3588V31.0605C27.4349 29.752 26.9598 28.308 26.1311 27.1044C25.8792 26.7381 25.5845 26.3928 25.2541 26.083C27.3706 25.7055 29.1103 25.0295 30.4642 24.084C31.493 23.366 32.27 22.4867 32.8148 21.5008ZM19.8439 26.5171H22.4052C23.1482 26.5171 23.9413 27.0527 24.5771 27.9756C25.213 28.8985 25.606 30.1393 25.606 31.0605V35.8509C24.1395 36.1736 22.6106 36.3478 21.0335 36.3478C19.4563 36.3478 17.9274 36.1736 16.461 35.8509V31.0605C16.461 30.1602 16.8896 28.9227 17.5666 27.995C18.2435 27.0673 19.1009 26.5171 19.8439 26.5171ZM9.42719 27.4932C10.2184 28.2354 11.1776 28.913 12.6208 28.913C13.3335 28.913 14.2229 28.9356 15.0678 28.8679C15.0714 28.8679 15.0731 28.8663 15.0767 28.8663C14.966 29.1551 14.882 29.4471 14.8124 29.7391H12.2546C11.1276 29.7391 10.3292 29.3713 9.96303 28.7081L9.95589 28.6968L9.95053 28.6872C9.80049 28.4355 9.60223 27.9305 9.42719 27.4932Z" fill="#C1C0C0"/>
</svg>
