<svg width="121" height="53" viewBox="0 0 121 53" fill="none" xmlns="http://www.w3.org/2000/svg">
<g clip-path="url(#clip0_0_13)">
<path d="M1.69034 14.2798V11.5455H20.7812V14.2798H12.777V37H9.6946V14.2798H1.69034Z" fill="white"/>
<path d="M31.6847 30V10.9091H34.6179V30H31.6847ZM33.1761 7.72727C32.6044 7.72727 32.1114 7.53255 31.6971 7.14311C31.2911 6.75367 31.0881 6.28551 31.0881 5.73864C31.0881 5.19176 31.2911 4.7236 31.6971 4.33416C32.1114 3.94472 32.6044 3.75 33.1761 3.75C33.7479 3.75 34.2367 3.94472 34.6428 4.33416C35.0571 4.7236 35.2642 5.19176 35.2642 5.73864C35.2642 6.28551 35.0571 6.75367 34.6428 7.14311C34.2367 7.53255 33.7479 7.72727 33.1761 7.72727Z" fill="white"/>
<path d="M44.1264 36H40.8949L50.2415 10.5455H53.4233L62.7699 36H59.5384L51.9318 14.5724H51.733L44.1264 36ZM45.3196 26.0568H58.3452V28.7912H45.3196V26.0568Z" fill="white"/>
<path d="M74.0824 32V6.54545H89.3452V9.27983H77.1648V17.8807H88.2017V20.6151H77.1648V32H74.0824Z" fill="white"/>
<path d="M101.419 33.0398L101.369 29.4105H101.966L110.318 20.9091H113.947L105.048 29.9077H104.8L101.419 33.0398ZM98.6847 40V14.5455H101.618V40H98.6847ZM110.815 40L103.358 30.554L105.446 28.5156L114.544 40H110.815Z" fill="white"/>
</g>
<defs>
<clipPath id="clip0_0_13">
<rect width="121" height="53" fill="white"/>
</clipPath>
</defs>
</svg>
